<svg data-v-423bf9ae="" xmlns="http://www.w3.org/2000/svg" viewBox="0 0 473 90" class="iconLeftSlogan"><!----><!----><!----><g data-v-423bf9ae="" id="3a9d15aa-693d-4c13-845f-e2f22f5ac963" fill="white" transform="matrix(6.109979823280842,0,0,6.109979823280842,105.05091660380566,-1.77189517392706)"><path d="M5.39 5.36C6.44 5.19 7.08 4.47 7.08 3.40C7.08 1.95 5.67 1.04 3.36 1.04C1.79 1.04 0.81 1.33 0.81 1.78L0.81 9.31C0.81 9.74 1.88 10.05 3.54 10.05C5.91 10.05 7.35 9.09 7.35 7.48C7.35 6.26 6.61 5.50 5.39 5.36ZM3.51 2.41C4.80 2.41 5.43 2.77 5.43 3.54C5.43 4.33 4.80 4.72 3.54 4.72L2.46 4.72L2.46 2.49C2.72 2.44 3.07 2.41 3.51 2.41ZM3.75 8.67C3.18 8.67 2.73 8.62 2.45 8.55L2.45 6.08L3.57 6.08C4.98 6.08 5.70 6.48 5.70 7.38C5.70 8.26 5.05 8.67 3.75 8.67ZM11.49 8.48C11.23 8.57 11.00 8.62 10.84 8.62C10.46 8.62 10.30 8.36 10.30 7.76L10.30 0.71C10.30 0.04 8.67 0.74 8.67 1.41L8.67 8.15C8.67 9.56 9.35 10.05 10.22 10.05C10.63 10.05 11.06 9.94 11.49 9.79C12.10 9.52 12.08 8.26 11.49 8.48ZM13.86 2.31C14.42 2.31 14.81 1.92 14.81 1.29C14.81 0.70 14.42 0.29 13.86 0.29C13.27 0.29 12.89 0.70 12.89 1.29C12.89 1.92 13.27 2.31 13.86 2.31ZM15.01 8.51C14.97 8.53 14.92 8.54 14.88 8.54C14.74 8.54 14.67 8.43 14.67 8.25L14.67 3.56C14.67 2.90 13.02 3.58 13.02 4.26L13.02 8.65C13.02 9.63 13.50 10.04 14.13 10.04C14.41 10.04 14.71 9.97 15.01 9.83C15.60 9.53 15.60 8.26 15.01 8.51ZM23.67 8.57C23.55 8.62 23.45 8.64 23.35 8.64C23.07 8.64 22.93 8.44 22.93 8.04L22.93 7.52L22.93 5.73C22.93 4.26 22.08 3.37 20.68 3.37C19.74 3.37 18.87 3.71 18.19 4.38L17.96 3.67C17.82 3.29 16.59 3.25 16.59 3.78L16.59 9.63C16.59 10.19 18.23 10.19 18.23 9.63L18.23 5.77C18.83 5.08 19.43 4.82 19.99 4.82C20.83 4.82 21.29 5.26 21.29 6.30L21.29 7.20L21.29 8.29C21.29 9.65 21.85 10.11 22.58 10.11C22.93 10.11 23.30 10.01 23.67 9.87C24.26 9.62 24.23 8.29 23.67 8.57ZM30.91 8.50C30.07 8.79 29.65 8.16 29.25 7.50C29.06 7.20 28.88 6.89 28.67 6.65C29.62 5.80 30.45 4.90 31.32 3.81C31.74 3.28 29.92 3.26 29.48 3.81C28.55 4.96 27.89 5.60 26.85 6.43L26.85 0.63C26.85-0.03 25.21 0.67 25.21 1.33L25.21 9.63C25.21 10.19 26.85 10.19 26.85 9.63L26.85 8.12C27.12 7.92 27.36 7.74 27.61 7.55C27.86 7.84 28.08 8.19 28.32 8.54C28.91 9.48 29.53 10.39 30.95 9.90C31.54 9.69 31.47 8.29 30.91 8.50ZM33.85 5.29C33.85 4.84 34.52 4.58 35.39 4.58C36.11 4.58 36.95 4.76 37.69 5.15C38.11 5.39 38.07 4.07 37.66 3.88C36.97 3.54 36.12 3.37 35.28 3.37C33.70 3.37 32.21 3.98 32.21 5.33C32.21 6.80 33.75 7 34.97 7.20C35.78 7.32 36.46 7.43 36.46 7.92C36.46 8.46 35.74 8.75 34.83 8.75C34.10 8.75 33.26 8.57 32.54 8.18C32.09 7.97 32.16 9.35 32.55 9.55C33.24 9.87 34.13 10.05 35 10.05C36.58 10.05 38.09 9.42 38.09 7.95C38.09 6.34 36.54 6.16 35.31 5.98C34.51 5.87 33.85 5.75 33.85 5.29ZM46.26 8.48C46.13 8.53 46.02 8.55 45.93 8.55C45.65 8.55 45.53 8.36 45.53 7.97L45.53 7.18L45.53 0.62C45.53-0.04 43.89 0.66 43.89 1.32L43.89 4.12C43.32 3.64 42.53 3.37 41.66 3.37C40.18 3.37 39.17 4.70 39.17 6.69C39.17 8.72 40.18 10.04 41.66 10.04C42.62 10.04 43.44 9.70 44.02 9.14C44.21 9.79 44.66 10.02 45.19 10.02C45.53 10.02 45.89 9.93 46.26 9.79C46.86 9.52 46.83 8.22 46.26 8.48ZM42.38 8.61C41.36 8.62 40.84 7.97 40.84 6.69C40.84 5.46 41.36 4.80 42.38 4.82C42.92 4.82 43.44 5.04 43.89 5.46L43.89 7.91C43.46 8.36 42.92 8.61 42.38 8.61ZM50.68 10.05C52.77 10.05 53.98 8.82 53.98 6.72C53.98 4.61 52.77 3.36 50.68 3.36C48.59 3.36 47.38 4.61 47.38 6.72C47.38 8.82 48.59 10.05 50.68 10.05ZM50.68 8.82C49.63 8.82 49.01 8.06 49.01 6.72C49.01 5.35 49.63 4.59 50.68 4.59C51.73 4.59 52.35 5.35 52.35 6.72C52.35 8.06 51.73 8.82 50.68 8.82ZM59.67 8.26C58.35 9.02 57.57 8.76 57.57 7.45L57.57 5.12L59.77 5.12C60.33 5.12 60.33 3.68 59.77 3.68L57.57 3.68L57.57 2.03C57.57 1.50 56.27 1.50 56.20 1.90L55.92 3.68L55.06 3.68C54.50 3.68 54.50 5.12 55.06 5.12L55.92 5.12L55.92 7.39C55.92 9.95 57.88 10.58 59.67 9.59C60.14 9.30 60.13 8.01 59.67 8.26Z"></path></g><!----><g data-v-423bf9ae="" id="1d2f4283-eb80-4f7f-bf81-9152a2d18527" transform="matrix(11.25,0,0,11.25,0.9999951124191284,0)" stroke="none" fill="white"><path clip-rule="evenodd" d="M8 5.498A2.501 2.501 0 0 1 5.5 8h-5a.5.5 0 0 1 0-1c.275 0 .5-.225.5-.502V1.5A.5.5 0 0 0 .5 1a.5.5 0 0 1 0-1H5a2 2 0 0 1 2 2c0 .472-.171.9-.443 1.242A2.497 2.497 0 0 1 8 5.498zM4 1h-.75a.249.249 0 0 0-.25.25v1.5c0 .137.111.25.25.25H4a1 1 0 1 0 0-2zm.5 3H3.25a.249.249 0 0 0-.25.25v2.5c0 .137.111.25.25.25H4.5a1.501 1.501 0 0 0 0-3z"></path></g><!----><g data-v-423bf9ae="" id="a69721e5-0166-4443-a98c-074038fafcb8" fill="white" transform="matrix(1.1975730648429528,0,0,1.1975730648429528,109.66533868335685,58.87335171641331)"><path d="M6.71 1.50C5.98 3.07 5.29 4.21 4.37 5.53C3.44 4.21 2.76 3.07 2.04 1.50C1.76 0.92 0.03 0.92 0.31 1.50C1.26 3.49 2.20 5.17 3.54 6.86L3.54 9.63C3.54 10.19 5.18 10.19 5.18 9.63L5.18 6.87C6.54 5.18 7.48 3.50 8.43 1.50C8.69 0.92 6.96 0.92 6.71 1.50ZM12.87 10.05C15.47 10.05 17.01 8.37 17.01 5.54C17.01 2.70 15.47 1.02 12.87 1.02C10.26 1.02 8.72 2.70 8.72 5.54C8.72 8.37 10.26 10.05 12.87 10.05ZM12.87 8.61C11.33 8.61 10.44 7.48 10.44 5.54C10.44 3.60 11.33 2.46 12.87 2.46C14.39 2.46 15.29 3.60 15.29 5.54C15.29 7.48 14.39 8.61 12.87 8.61ZM18.28 6.23C18.28 8.36 19.18 10.05 21.90 10.05C24.61 10.05 25.51 8.36 25.51 6.23L25.51 1.44C25.51 0.88 23.87 0.88 23.87 1.44L23.87 6.17C23.87 7.50 23.25 8.55 21.90 8.55C20.54 8.55 19.92 7.50 19.92 6.17L19.92 1.20C19.92 0.55 18.28 1.25 18.28 1.90ZM32.97 8.44C32.83 8.50 32.70 8.53 32.58 8.53C32.09 8.53 31.75 8.05 31.42 7.56C31.25 7.31 31.08 7.04 30.88 6.78C32.76 6.68 33.71 5.75 33.71 3.86C33.71 2.04 32.33 1.04 29.96 1.04C28.08 1.04 27.16 1.43 27.16 1.78L27.16 9.63C27.16 10.19 28.80 10.19 28.80 9.63L28.80 6.76C29.46 7.13 29.89 7.83 30.30 8.47C30.80 9.31 31.29 10.14 32.17 10.14C32.41 10.14 32.68 10.07 32.98 9.95C33.52 9.76 33.52 8.23 32.97 8.44ZM30.11 2.45C31.39 2.45 32.05 2.98 32.05 3.99C32.05 4.94 31.60 5.60 30.23 5.60C29.83 5.60 29.36 5.54 28.80 5.43L28.80 2.65C29.20 2.52 29.67 2.45 30.11 2.45ZM41.10 1.04C39.86 1.04 38.96 1.18 38.54 1.43C38.36 1.53 38.28 1.65 38.28 1.78L38.28 9.31C38.28 9.42 38.35 9.51 38.47 9.60C38.88 9.88 39.87 10.05 41.29 10.05C43.92 10.05 45.42 8.43 45.42 5.54C45.42 2.66 43.86 1.04 41.10 1.04ZM41.19 8.61C40.63 8.61 40.19 8.58 39.91 8.50L39.93 2.58C40.21 2.49 40.61 2.46 41.12 2.46C42.90 2.46 43.75 3.49 43.75 5.54C43.75 7.60 42.92 8.61 41.19 8.61ZM52.42 8.44C52.28 8.50 52.15 8.53 52.02 8.53C51.53 8.53 51.20 8.05 50.86 7.56C50.69 7.31 50.53 7.04 50.33 6.78C52.21 6.68 53.16 5.75 53.16 3.86C53.16 2.04 51.77 1.04 49.41 1.04C47.53 1.04 46.61 1.43 46.61 1.78L46.61 9.63C46.61 10.19 48.24 10.19 48.24 9.63L48.24 6.76C48.90 7.13 49.34 7.83 49.74 8.47C50.25 9.31 50.74 10.14 51.62 10.14C51.86 10.14 52.12 10.07 52.43 9.95C52.96 9.76 52.96 8.23 52.42 8.44ZM49.56 2.45C50.83 2.45 51.49 2.98 51.49 3.99C51.49 4.94 51.04 5.60 49.67 5.60C49.28 5.60 48.80 5.54 48.24 5.43L48.24 2.65C48.65 2.52 49.11 2.45 49.56 2.45ZM59.96 8.51L56 8.51L56 6.22L58.98 6.22C59.53 6.22 59.53 4.77 58.98 4.77L56.01 4.77L56.01 2.58L59.37 2.58C60.03 2.58 60.75 1.13 60.09 1.13L54.68 1.13C54.49 1.13 54.38 1.41 54.38 1.72L54.38 9.34C54.38 9.65 54.47 9.95 54.68 9.95L59.96 9.95C60.52 9.95 60.52 8.51 59.96 8.51ZM69.23 9.63C68.18 6.45 66.21 2.03 65.32 1.09C65.23 1.01 65.04 1.01 64.95 1.09C64.06 2.03 62.09 6.45 61.04 9.63C60.84 10.21 62.73 10.21 62.90 9.63C63.11 8.93 63.32 8.27 63.53 7.62L66.74 7.62C66.95 8.27 67.16 8.93 67.37 9.63C67.54 10.19 69.44 10.21 69.23 9.63ZM64.01 6.23C64.33 5.33 64.69 4.44 65.14 3.50C65.58 4.44 65.94 5.33 66.26 6.23ZM79.74 8.57C79.62 8.62 79.51 8.64 79.42 8.64C79.14 8.64 79.02 8.44 79.02 8.05L79.02 7.50L79.02 1.44C79.02 0.88 77.52 0.94 77.39 1.26C76.69 2.86 75.81 4.44 74.62 5.96C73.40 4.44 72.56 2.86 71.85 1.26C71.72 0.94 70.22 0.88 70.22 1.44L70.22 9.63C70.22 10.19 71.86 10.19 71.86 9.63L71.86 4.54C72.74 6.12 73.75 7.57 74.28 7.94C74.48 8.05 74.76 8.05 74.94 7.94C75.49 7.57 76.50 6.10 77.38 4.52L77.38 7.27L77.38 8.29C77.38 9.66 77.95 10.11 78.69 10.11C79.02 10.11 79.39 10.01 79.74 9.87C80.35 9.60 80.32 8.29 79.74 8.57ZM82.42 3.56C82.42 2.79 82.98 2.37 83.89 2.37C84.60 2.37 85.54 2.62 86.60 3.16C87.15 3.44 87.07 1.93 86.58 1.69C85.72 1.25 84.78 1.02 83.90 1.02C82.22 1.02 80.79 1.88 80.79 3.68C80.79 5.52 82.28 5.82 83.58 6.10C84.63 6.31 85.57 6.51 85.57 7.43C85.57 8.20 84.94 8.64 83.94 8.64C83.22 8.64 82.28 8.40 81.26 7.88C80.68 7.59 80.77 9.14 81.28 9.38C82.15 9.81 83.12 10.05 84.01 10.05C85.75 10.05 87.22 9.20 87.22 7.41C87.22 5.39 85.69 5.08 84.36 4.83C83.33 4.63 82.42 4.47 82.42 3.56ZM91.43 5.56C91.43 8.61 93.11 10.05 95.49 10.05C96.60 10.05 97.55 9.72 97.96 9.42C98.38 9.14 98.35 7.78 97.85 8.08C97.43 8.32 96.52 8.61 95.70 8.61C94.33 8.61 93.16 7.70 93.16 5.56C93.16 3.39 94.33 2.48 95.70 2.48C96.52 2.48 97.43 2.77 97.85 3.02C98.35 3.32 98.38 1.97 97.96 1.68C97.55 1.37 96.60 1.04 95.49 1.04C93.11 1.04 91.43 2.48 91.43 5.56ZM107.03 9.63C105.98 6.45 104.01 2.03 103.12 1.09C103.03 1.01 102.84 1.01 102.75 1.09C101.86 2.03 99.89 6.45 98.84 9.63C98.64 10.21 100.53 10.21 100.70 9.63C100.91 8.93 101.12 8.27 101.33 7.62L104.54 7.62C104.75 8.27 104.96 8.93 105.17 9.63C105.34 10.19 107.24 10.21 107.03 9.63ZM101.81 6.23C102.13 5.33 102.49 4.44 102.94 3.50C103.38 4.44 103.74 5.33 104.06 6.23ZM113.95 1.92L113.95 6.59C112.80 4.68 111.44 2.95 109.58 1.19C109.33 0.94 108.02 0.90 108.02 1.46L108.02 9.63C108.02 10.19 109.66 10.19 109.66 9.63L109.66 3.50C111.38 5.32 112.52 6.86 113.96 9.80C114.13 10.14 115.60 10.19 115.60 9.63L115.60 1.22C115.60 0.56 113.95 1.26 113.95 1.92ZM121.80 3.56C121.80 2.79 122.36 2.37 123.27 2.37C123.98 2.37 124.92 2.62 125.99 3.16C126.53 3.44 126.45 1.93 125.96 1.69C125.10 1.25 124.17 1.02 123.28 1.02C121.60 1.02 120.18 1.88 120.18 3.68C120.18 5.52 121.66 5.82 122.96 6.10C124.01 6.31 124.95 6.51 124.95 7.43C124.95 8.20 124.32 8.64 123.33 8.64C122.60 8.64 121.66 8.40 120.64 7.88C120.06 7.59 120.15 9.14 120.67 9.38C121.53 9.81 122.50 10.05 123.40 10.05C125.13 10.05 126.60 9.20 126.60 7.41C126.60 5.39 125.08 5.08 123.75 4.83C122.71 4.63 121.80 4.47 121.80 3.56ZM127.82 6.23C127.82 8.36 128.72 10.05 131.43 10.05C134.15 10.05 135.04 8.36 135.04 6.23L135.04 1.44C135.04 0.88 133.41 0.88 133.41 1.44L133.41 6.17C133.41 7.50 132.79 8.55 131.43 8.55C130.07 8.55 129.46 7.50 129.46 6.17L129.46 1.20C129.46 0.55 127.82 1.25 127.82 1.90ZM136.35 5.56C136.35 8.61 138.03 10.05 140.41 10.05C141.51 10.05 142.46 9.72 142.87 9.42C143.29 9.14 143.26 7.78 142.76 8.08C142.34 8.32 141.43 8.61 140.62 8.61C139.24 8.61 138.07 7.70 138.07 5.56C138.07 3.39 139.24 2.48 140.62 2.48C141.43 2.48 142.34 2.77 142.76 3.02C143.26 3.32 143.29 1.97 142.87 1.68C142.46 1.37 141.51 1.04 140.41 1.04C138.03 1.04 136.35 2.48 136.35 5.56ZM143.92 5.56C143.92 8.61 145.60 10.05 147.98 10.05C149.09 10.05 150.04 9.72 150.44 9.42C150.86 9.14 150.84 7.78 150.33 8.08C149.91 8.32 149.00 8.61 148.19 8.61C146.82 8.61 145.64 7.70 145.64 5.56C145.64 3.39 146.82 2.48 148.19 2.48C149.00 2.48 149.91 2.77 150.33 3.02C150.84 3.32 150.86 1.97 150.44 1.68C150.04 1.37 149.09 1.04 147.98 1.04C145.60 1.04 143.92 2.48 143.92 5.56ZM157.71 8.51L153.75 8.51L153.75 6.22L156.73 6.22C157.28 6.22 157.28 4.77 156.73 4.77L153.76 4.77L153.76 2.58L157.12 2.58C157.78 2.58 158.49 1.13 157.84 1.13L152.43 1.13C152.24 1.13 152.12 1.41 152.12 1.72L152.12 9.34C152.12 9.65 152.22 9.95 152.43 9.95L157.71 9.95C158.27 9.95 158.27 8.51 157.71 8.51ZM164.89 8.51L160.93 8.51L160.93 6.22L163.91 6.22C164.46 6.22 164.46 4.77 163.91 4.77L160.94 4.77L160.94 2.58L164.30 2.58C164.96 2.58 165.68 1.13 165.02 1.13L159.61 1.13C159.42 1.13 159.31 1.41 159.31 1.72L159.31 9.34C159.31 9.65 159.40 9.95 159.61 9.95L164.89 9.95C165.45 9.95 165.45 8.51 164.89 8.51ZM169.32 1.04C168.07 1.04 167.17 1.18 166.75 1.43C166.57 1.53 166.49 1.65 166.49 1.78L166.49 9.31C166.49 9.42 166.56 9.51 166.68 9.60C167.09 9.88 168.08 10.05 169.50 10.05C172.13 10.05 173.63 8.43 173.63 5.54C173.63 2.66 172.07 1.04 169.32 1.04ZM169.40 8.61C168.84 8.61 168.41 8.58 168.13 8.50L168.14 2.58C168.42 2.49 168.83 2.46 169.33 2.46C171.11 2.46 171.96 3.49 171.96 5.54C171.96 7.60 171.14 8.61 169.40 8.61ZM178.65 9.63C178.65 10.19 180.31 10.19 180.31 9.63L180.31 1.22C180.31 0.56 178.65 1.26 178.65 1.92ZM188.34 1.92L188.34 6.59C187.19 4.68 185.84 2.95 183.97 1.19C183.72 0.94 182.42 0.90 182.42 1.46L182.42 9.63C182.42 10.19 184.06 10.19 184.06 9.63L184.06 3.50C185.78 5.32 186.91 6.86 188.36 9.80C188.52 10.14 189.99 10.19 189.99 9.63L189.99 1.22C189.99 0.56 188.34 1.26 188.34 1.92ZM202.64 9.63C201.59 6.45 199.61 2.03 198.73 1.09C198.63 1.01 198.45 1.01 198.35 1.09C197.47 2.03 195.50 6.45 194.45 9.63C194.25 10.21 196.14 10.21 196.31 9.63C196.52 8.93 196.73 8.27 196.94 7.62L200.14 7.62C200.35 8.27 200.56 8.93 200.77 9.63C200.94 10.19 202.85 10.21 202.64 9.63ZM197.41 6.23C197.74 5.33 198.10 4.44 198.55 3.50C198.98 4.44 199.35 5.33 199.67 6.23ZM211.67 5.36C212.72 5.19 213.36 4.47 213.36 3.40C213.36 1.95 211.95 1.04 209.64 1.04C208.07 1.04 207.09 1.33 207.09 1.78L207.09 9.31C207.09 9.74 208.15 10.05 209.82 10.05C212.18 10.05 213.63 9.09 213.63 7.48C213.63 6.26 212.88 5.50 211.67 5.36ZM209.79 2.41C211.08 2.41 211.71 2.77 211.71 3.54C211.71 4.33 211.08 4.72 209.82 4.72L208.74 4.72L208.74 2.49C208.99 2.44 209.34 2.41 209.79 2.41ZM210.03 8.67C209.45 8.67 209.01 8.62 208.73 8.55L208.73 6.08L209.85 6.08C211.26 6.08 211.97 6.48 211.97 7.38C211.97 8.26 211.33 8.67 210.03 8.67ZM220.30 8.53L216.37 8.53L216.37 1.20C216.37 0.55 214.75 1.25 214.75 1.90L214.75 9.35C214.75 9.65 214.83 9.95 215.05 9.95L220.30 9.95C220.85 9.95 220.85 8.53 220.30 8.53ZM222.31 9.63C222.31 10.19 223.96 10.19 223.96 9.63L223.96 1.22C223.96 0.56 222.31 1.26 222.31 1.92ZM231.99 1.92L231.99 6.59C230.85 4.68 229.49 2.95 227.63 1.19C227.37 0.94 226.07 0.90 226.07 1.46L226.07 9.63C226.07 10.19 227.71 10.19 227.71 9.63L227.71 3.50C229.43 5.32 230.57 6.86 232.01 9.80C232.18 10.14 233.65 10.19 233.65 9.63L233.65 1.22C233.65 0.56 231.99 1.26 231.99 1.92ZM240.79 1.50C239.55 3.18 238.41 4.55 236.92 5.89L236.92 1.22C236.92 0.56 235.28 1.26 235.28 1.92L235.28 9.63C235.28 10.19 236.92 10.19 236.92 9.63L236.92 7.78C237.29 7.49 237.64 7.20 237.97 6.90C238.36 7.22 238.69 7.76 239.01 8.30C239.65 9.38 240.35 10.46 241.86 9.91C242.35 9.72 242.31 8.16 241.85 8.36C241.05 8.69 240.53 7.91 240.02 7.07C239.75 6.61 239.44 6.15 239.05 5.87C240.37 4.52 241.43 3.11 242.58 1.48C243.00 0.91 241.21 0.94 240.79 1.50Z"></path></g></svg>