<svg data-v-423bf9ae="" xmlns="http://www.w3.org/2000/svg" viewBox="0 0 362.81060843257893 60" class="font"><!----><!----><!----><g data-v-423bf9ae="" id="5602fffc-ea7a-49eb-b847-7c8c3173b111" fill="black" transform="matrix(6.109979823280842,0,0,6.109979823280842,-4.9490833961943395,-1.77189517392706)"><path d="M5.39 5.36C6.44 5.19 7.08 4.47 7.08 3.40C7.08 1.95 5.67 1.04 3.36 1.04C1.79 1.04 0.81 1.33 0.81 1.78L0.81 9.31C0.81 9.74 1.88 10.05 3.54 10.05C5.91 10.05 7.35 9.09 7.35 7.48C7.35 6.26 6.61 5.50 5.39 5.36ZM3.51 2.41C4.80 2.41 5.43 2.77 5.43 3.54C5.43 4.33 4.80 4.72 3.54 4.72L2.46 4.72L2.46 2.49C2.72 2.44 3.07 2.41 3.51 2.41ZM3.75 8.67C3.18 8.67 2.73 8.62 2.45 8.55L2.45 6.08L3.57 6.08C4.98 6.08 5.70 6.48 5.70 7.38C5.70 8.26 5.05 8.67 3.75 8.67ZM11.49 8.48C11.23 8.57 11.00 8.62 10.84 8.62C10.46 8.62 10.30 8.36 10.30 7.76L10.30 0.71C10.30 0.04 8.67 0.74 8.67 1.41L8.67 8.15C8.67 9.56 9.35 10.05 10.22 10.05C10.63 10.05 11.06 9.94 11.49 9.79C12.10 9.52 12.08 8.26 11.49 8.48ZM13.86 2.31C14.42 2.31 14.81 1.92 14.81 1.29C14.81 0.70 14.42 0.29 13.86 0.29C13.27 0.29 12.89 0.70 12.89 1.29C12.89 1.92 13.27 2.31 13.86 2.31ZM15.01 8.51C14.97 8.53 14.92 8.54 14.88 8.54C14.74 8.54 14.67 8.43 14.67 8.25L14.67 3.56C14.67 2.90 13.02 3.58 13.02 4.26L13.02 8.65C13.02 9.63 13.50 10.04 14.13 10.04C14.41 10.04 14.71 9.97 15.01 9.83C15.60 9.53 15.60 8.26 15.01 8.51ZM23.67 8.57C23.55 8.62 23.45 8.64 23.35 8.64C23.07 8.64 22.93 8.44 22.93 8.04L22.93 7.52L22.93 5.73C22.93 4.26 22.08 3.37 20.68 3.37C19.74 3.37 18.87 3.71 18.19 4.38L17.96 3.67C17.82 3.29 16.59 3.25 16.59 3.78L16.59 9.63C16.59 10.19 18.23 10.19 18.23 9.63L18.23 5.77C18.83 5.08 19.43 4.82 19.99 4.82C20.83 4.82 21.29 5.26 21.29 6.30L21.29 7.20L21.29 8.29C21.29 9.65 21.85 10.11 22.58 10.11C22.93 10.11 23.30 10.01 23.67 9.87C24.26 9.62 24.23 8.29 23.67 8.57ZM30.91 8.50C30.07 8.79 29.65 8.16 29.25 7.50C29.06 7.20 28.88 6.89 28.67 6.65C29.62 5.80 30.45 4.90 31.32 3.81C31.74 3.28 29.92 3.26 29.48 3.81C28.55 4.96 27.89 5.60 26.85 6.43L26.85 0.63C26.85-0.03 25.21 0.67 25.21 1.33L25.21 9.63C25.21 10.19 26.85 10.19 26.85 9.63L26.85 8.12C27.12 7.92 27.36 7.74 27.61 7.55C27.86 7.84 28.08 8.19 28.32 8.54C28.91 9.48 29.53 10.39 30.95 9.90C31.54 9.69 31.47 8.29 30.91 8.50ZM33.85 5.29C33.85 4.84 34.52 4.58 35.39 4.58C36.11 4.58 36.95 4.76 37.69 5.15C38.11 5.39 38.07 4.07 37.66 3.88C36.97 3.54 36.12 3.37 35.28 3.37C33.70 3.37 32.21 3.98 32.21 5.33C32.21 6.80 33.75 7 34.97 7.20C35.78 7.32 36.46 7.43 36.46 7.92C36.46 8.46 35.74 8.75 34.83 8.75C34.10 8.75 33.26 8.57 32.54 8.18C32.09 7.97 32.16 9.35 32.55 9.55C33.24 9.87 34.13 10.05 35 10.05C36.58 10.05 38.09 9.42 38.09 7.95C38.09 6.34 36.54 6.16 35.31 5.98C34.51 5.87 33.85 5.75 33.85 5.29ZM46.26 8.48C46.13 8.53 46.02 8.55 45.93 8.55C45.65 8.55 45.53 8.36 45.53 7.97L45.53 7.18L45.53 0.62C45.53-0.04 43.89 0.66 43.89 1.32L43.89 4.12C43.32 3.64 42.53 3.37 41.66 3.37C40.18 3.37 39.17 4.70 39.17 6.69C39.17 8.72 40.18 10.04 41.66 10.04C42.62 10.04 43.44 9.70 44.02 9.14C44.21 9.79 44.66 10.02 45.19 10.02C45.53 10.02 45.89 9.93 46.26 9.79C46.86 9.52 46.83 8.22 46.26 8.48ZM42.38 8.61C41.36 8.62 40.84 7.97 40.84 6.69C40.84 5.46 41.36 4.80 42.38 4.82C42.92 4.82 43.44 5.04 43.89 5.46L43.89 7.91C43.46 8.36 42.92 8.61 42.38 8.61ZM50.68 10.05C52.77 10.05 53.98 8.82 53.98 6.72C53.98 4.61 52.77 3.36 50.68 3.36C48.59 3.36 47.38 4.61 47.38 6.72C47.38 8.82 48.59 10.05 50.68 10.05ZM50.68 8.82C49.63 8.82 49.01 8.06 49.01 6.72C49.01 5.35 49.63 4.59 50.68 4.59C51.73 4.59 52.35 5.35 52.35 6.72C52.35 8.06 51.73 8.82 50.68 8.82ZM59.67 8.26C58.35 9.02 57.57 8.76 57.57 7.45L57.57 5.12L59.77 5.12C60.33 5.12 60.33 3.68 59.77 3.68L57.57 3.68L57.57 2.03C57.57 1.50 56.27 1.50 56.20 1.90L55.92 3.68L55.06 3.68C54.50 3.68 54.50 5.12 55.06 5.12L55.92 5.12L55.92 7.39C55.92 9.95 57.88 10.58 59.67 9.59C60.14 9.30 60.13 8.01 59.67 8.26Z"></path></g><!----><!----></svg>